<svg version="1.1" xmlns="http://www.w3.org/2000/svg" xmlns:xlink="http://www.w3.org/1999/xlink" width="940" height="785"><defs/><g><g transform="translate(-406,-214) scale(1,1)"><rect fill="#C0C0C0" stroke="none" x="511" y="319" width="136" height="147" opacity="0.2"/></g><g transform="translate(-406,-214) scale(1,1)"><rect fill="#ffffff" stroke="none" x="504" y="312" width="136" height="147"/></g><g transform="translate(-406,-214) scale(1,1)"><path fill="none" stroke="#000000" d="M 504 312 L 640 312 L 640 459 L 504 459 L 504 312 Z Z" stroke-miterlimit="10"/></g><g transform="translate(-406,-214) scale(1,1)"><path fill="none" stroke="#000000" d="M 504 337 L 640 337" stroke-miterlimit="10"/></g><g transform="translate(-406,-214) scale(1,1)"><path fill="none" stroke="#000000" d="M 504 450 L 640 450" stroke-miterlimit="10"/></g><g transform="translate(-406,-214) scale(1,1)"><g><path fill="none" stroke="none"/><text fill="#000000" stroke="none" font-family="Arial" font-size="13px" font-style="normal" font-weight="bold" text-decoration="none" x="557.54638671875" y="330">User</text></g></g><g transform="translate(-406,-214) scale(1,1)"><g><path fill="none" stroke="none"/><text fill="#000000" stroke="none" font-family="Arial" font-size="13px" font-style="normal" font-weight="normal" text-decoration="none" x="509" y="353">+id: string</text></g></g><g transform="translate(-406,-214) scale(1,1)"><g><path fill="none" stroke="none"/><text fill="#000000" stroke="none" font-family="Arial" font-size="13px" font-style="normal" font-weight="normal" text-decoration="none" x="509" y="368">+firstName: string</text></g></g><g transform="translate(-406,-214) scale(1,1)"><g><path fill="none" stroke="none"/><text fill="#000000" stroke="none" font-family="Arial" font-size="13px" font-style="normal" font-weight="normal" text-decoration="none" x="509" y="383">+lastName: string</text></g></g><g transform="translate(-406,-214) scale(1,1)"><g><path fill="none" stroke="none"/><text fill="#000000" stroke="none" font-family="Arial" font-size="13px" font-style="normal" font-weight="normal" text-decoration="none" x="509" y="398">+email: string</text></g></g><g transform="translate(-406,-214) scale(1,1)"><g><path fill="none" stroke="none"/><text fill="#000000" stroke="none" font-family="Arial" font-size="13px" font-style="normal" font-weight="normal" text-decoration="none" x="509" y="413">+password: string</text></g></g><g transform="translate(-406,-214) scale(1,1)"><g><path fill="none" stroke="none"/><text fill="#000000" stroke="none" font-family="Arial" font-size="13px" font-style="normal" font-weight="normal" text-decoration="none" x="509" y="428">+phone: string</text></g></g><g transform="translate(-406,-214) scale(1,1)"><g><path fill="none" stroke="none"/><text fill="#000000" stroke="none" font-family="Arial" font-size="13px" font-style="normal" font-weight="normal" text-decoration="none" x="509" y="443">+role: User</text></g></g><g transform="translate(-406,-214) scale(1,1)"><rect fill="#C0C0C0" stroke="none" x="423" y="623" width="136" height="87" opacity="0.2"/></g><g transform="translate(-406,-214) scale(1,1)"><rect fill="#ffffff" stroke="none" x="416" y="616" width="136" height="87"/></g><g transform="translate(-406,-214) scale(1,1)"><path fill="none" stroke="#000000" d="M 416 616 L 552 616 L 552 703 L 416 703 L 416 616 Z Z" stroke-miterlimit="10"/></g><g transform="translate(-406,-214) scale(1,1)"><path fill="none" stroke="#000000" d="M 416 641 L 552 641" stroke-miterlimit="10"/></g><g transform="translate(-406,-214) scale(1,1)"><path fill="none" stroke="#000000" d="M 416 694 L 552 694" stroke-miterlimit="10"/></g><g transform="translate(-406,-214) scale(1,1)"><g><path fill="none" stroke="none"/><text fill="#000000" stroke="none" font-family="Arial" font-size="13px" font-style="normal" font-weight="bold" text-decoration="none" x="469.91455078125" y="634">Role</text></g></g><g transform="translate(-406,-214) scale(1,1)"><g><path fill="none" stroke="none"/><text fill="#000000" stroke="none" font-family="Arial" font-size="13px" font-style="normal" font-weight="normal" text-decoration="none" x="421" y="657">+id: string</text></g></g><g transform="translate(-406,-214) scale(1,1)"><g><path fill="none" stroke="none"/><text fill="#000000" stroke="none" font-family="Arial" font-size="13px" font-style="normal" font-weight="normal" text-decoration="none" x="421" y="672">+name: string</text></g></g><g transform="translate(-406,-214) scale(1,1)"><g><path fill="none" stroke="none"/><text fill="#000000" stroke="none" font-family="Arial" font-size="13px" font-style="normal" font-weight="normal" text-decoration="none" x="421" y="687">+description: string</text></g></g><g transform="translate(-406,-214) scale(1,1)"><path fill="none" stroke="#000000" d="M 498 615 L 548 460" stroke-miterlimit="10"/></g><g transform="translate(-406,-214) scale(1,1)"><g><path fill="none" stroke="none"/><text fill="#000000" stroke="none" font-family="Arial" font-size="13px" font-style="normal" font-weight="normal" text-decoration="none" x="508.5" y="614">1</text></g></g><g transform="translate(-406,-214) scale(1,1)"><g><path fill="none" stroke="none"/><text fill="#000000" stroke="none" font-family="Arial" font-size="13px" font-style="normal" font-weight="normal" text-decoration="none" x="551.5" y="479">0..*</text></g></g><g transform="translate(-406,-214) scale(1,1)"><rect fill="#C0C0C0" stroke="none" x="743" y="631" width="136" height="134" opacity="0.2"/></g><g transform="translate(-406,-214) scale(1,1)"><rect fill="#ffffff" stroke="none" x="736" y="624" width="136" height="134"/></g><g transform="translate(-406,-214) scale(1,1)"><path fill="none" stroke="#000000" d="M 736 624 L 872 624 L 872 758 L 736 758 L 736 624 Z Z" stroke-miterlimit="10"/></g><g transform="translate(-406,-214) scale(1,1)"><path fill="none" stroke="#000000" d="M 736 649 L 872 649" stroke-miterlimit="10"/></g><g transform="translate(-406,-214) scale(1,1)"><path fill="none" stroke="#000000" d="M 736 749 L 872 749" stroke-miterlimit="10"/></g><g transform="translate(-406,-214) scale(1,1)"><g><path fill="none" stroke="none"/><text fill="#000000" stroke="none" font-family="Arial" font-size="13px" font-style="normal" font-weight="bold" text-decoration="none" x="780.869140625" y="642">Service</text></g></g><g transform="translate(-406,-214) scale(1,1)"><g><path fill="none" stroke="none"/><text fill="#000000" stroke="none" font-family="Arial" font-size="13px" font-style="normal" font-weight="normal" text-decoration="none" x="741" y="667">+id: string</text></g></g><g transform="translate(-406,-214) scale(1,1)"><g><path fill="none" stroke="none"/><text fill="#000000" stroke="none" font-family="Arial" font-size="13px" font-style="normal" font-weight="normal" text-decoration="none" x="741" y="682">+title: string</text></g></g><g transform="translate(-406,-214) scale(1,1)"><g><path fill="none" stroke="none"/><text fill="#000000" stroke="none" font-family="Arial" font-size="13px" font-style="normal" font-weight="normal" text-decoration="none" x="741" y="697">+description: string</text></g></g><g transform="translate(-406,-214) scale(1,1)"><g><path fill="none" stroke="none"/><text fill="#000000" stroke="none" font-family="Arial" font-size="13px" font-style="normal" font-weight="normal" text-decoration="none" x="741" y="712">+price: double</text></g></g><g transform="translate(-406,-214) scale(1,1)"><g><path fill="none" stroke="none"/><text fill="#000000" stroke="none" font-family="Arial" font-size="13px" font-style="normal" font-weight="normal" text-decoration="none" x="741" y="727">+duration: int</text></g></g><g transform="translate(-406,-214) scale(1,1)"><g><path fill="none" stroke="none"/><text fill="#000000" stroke="none" font-family="Arial" font-size="13px" font-style="normal" font-weight="normal" text-decoration="none" x="741" y="742">+category: Category</text></g></g><g transform="translate(-406,-214) scale(1,1)"><rect fill="#C0C0C0" stroke="none" x="743" y="903" width="128" height="87" opacity="0.2"/></g><g transform="translate(-406,-214) scale(1,1)"><rect fill="#ffffff" stroke="none" x="736" y="896" width="128" height="87"/></g><g transform="translate(-406,-214) scale(1,1)"><path fill="none" stroke="#000000" d="M 736 896 L 864 896 L 864 983 L 736 983 L 736 896 Z Z" stroke-miterlimit="10"/></g><g transform="translate(-406,-214) scale(1,1)"><path fill="none" stroke="#000000" d="M 736 921 L 864 921" stroke-miterlimit="10"/></g><g transform="translate(-406,-214) scale(1,1)"><path fill="none" stroke="#000000" d="M 736 974 L 864 974" stroke-miterlimit="10"/></g><g transform="translate(-406,-214) scale(1,1)"><g><path fill="none" stroke="none"/><text fill="#000000" stroke="none" font-family="Arial" font-size="13px" font-style="normal" font-weight="bold" text-decoration="none" x="771.825927734375" y="914">Category</text></g></g><g transform="translate(-406,-214) scale(1,1)"><g><path fill="none" stroke="none"/><text fill="#000000" stroke="none" font-family="Arial" font-size="13px" font-style="normal" font-weight="normal" text-decoration="none" x="741" y="937">+id: string</text></g></g><g transform="translate(-406,-214) scale(1,1)"><g><path fill="none" stroke="none"/><text fill="#000000" stroke="none" font-family="Arial" font-size="13px" font-style="normal" font-weight="normal" text-decoration="none" x="741" y="952">+name: string</text></g></g><g transform="translate(-406,-214) scale(1,1)"><g><path fill="none" stroke="none"/><text fill="#000000" stroke="none" font-family="Arial" font-size="13px" font-style="normal" font-weight="normal" text-decoration="none" x="741" y="967">+description: string</text></g></g><g transform="translate(-406,-214) scale(1,1)"><path fill="none" stroke="#000000" d="M 801 895 L 803 759" stroke-miterlimit="10"/></g><g transform="translate(-406,-214) scale(1,1)"><g><path fill="none" stroke="none"/><text fill="#000000" stroke="none" font-family="Arial" font-size="13px" font-style="normal" font-weight="normal" text-decoration="none" x="809.5" y="891">1</text></g></g><g transform="translate(-406,-214) scale(1,1)"><g><path fill="none" stroke="none"/><text fill="#000000" stroke="none" font-family="Arial" font-size="13px" font-style="normal" font-weight="normal" text-decoration="none" x="810.5" y="778">1..*</text></g></g><g transform="translate(-406,-214) scale(1,1)"><rect fill="#C0C0C0" stroke="none" x="1207" y="879" width="136" height="117" opacity="0.2"/></g><g transform="translate(-406,-214) scale(1,1)"><rect fill="#ffffff" stroke="none" x="1200" y="872" width="136" height="117"/></g><g transform="translate(-406,-214) scale(1,1)"><path fill="none" stroke="#000000" d="M 1200 872 L 1336 872 L 1336 989 L 1200 989 L 1200 872 Z Z" stroke-miterlimit="10"/></g><g transform="translate(-406,-214) scale(1,1)"><path fill="none" stroke="#000000" d="M 1200 897 L 1336 897" stroke-miterlimit="10"/></g><g transform="translate(-406,-214) scale(1,1)"><path fill="none" stroke="#000000" d="M 1200 980 L 1336 980" stroke-miterlimit="10"/></g><g transform="translate(-406,-214) scale(1,1)"><g><path fill="none" stroke="none"/><text fill="#000000" stroke="none" font-family="Arial" font-size="13px" font-style="normal" font-weight="bold" text-decoration="none" x="1233.922607421875" y="890">Availability</text></g></g><g transform="translate(-406,-214) scale(1,1)"><g><path fill="none" stroke="none"/><text fill="#000000" stroke="none" font-family="Arial" font-size="13px" font-style="normal" font-weight="normal" text-decoration="none" x="1205" y="913">+id: string</text></g></g><g transform="translate(-406,-214) scale(1,1)"><g><path fill="none" stroke="none"/><text fill="#000000" stroke="none" font-family="Arial" font-size="13px" font-style="normal" font-weight="normal" text-decoration="none" x="1205" y="928">+date: Date</text></g></g><g transform="translate(-406,-214) scale(1,1)"><g><path fill="none" stroke="none"/><text fill="#000000" stroke="none" font-family="Arial" font-size="13px" font-style="normal" font-weight="normal" text-decoration="none" x="1205" y="943">+startTime: Time</text></g></g><g transform="translate(-406,-214) scale(1,1)"><g><path fill="none" stroke="none"/><text fill="#000000" stroke="none" font-family="Arial" font-size="13px" font-style="normal" font-weight="normal" text-decoration="none" x="1205" y="958">+endTime: Time</text></g></g><g transform="translate(-406,-214) scale(1,1)"><g><path fill="none" stroke="none"/><text fill="#000000" stroke="none" font-family="Arial" font-size="13px" font-style="normal" font-weight="normal" text-decoration="none" x="1205" y="973">+isBooked: boolean</text></g></g><g transform="translate(-406,-214) scale(1,1)"><rect fill="#C0C0C0" stroke="none" x="1175" y="671" width="144.966796875" height="117" opacity="0.2"/></g><g transform="translate(-406,-214) scale(1,1)"><rect fill="#ffffff" stroke="none" x="1168" y="664" width="144.966796875" height="117"/></g><g transform="translate(-406,-214) scale(1,1)"><path fill="none" stroke="#000000" d="M 1168 664 L 1312.966796875 664 L 1312.966796875 781 L 1168 781 L 1168 664 Z Z" stroke-miterlimit="10"/></g><g transform="translate(-406,-214) scale(1,1)"><path fill="none" stroke="#000000" d="M 1168 689 L 1312.966796875 689" stroke-miterlimit="10"/></g><g transform="translate(-406,-214) scale(1,1)"><path fill="none" stroke="#000000" d="M 1168 772 L 1312.966796875 772" stroke-miterlimit="10"/></g><g transform="translate(-406,-214) scale(1,1)"><g><path fill="none" stroke="none"/><text fill="#000000" stroke="none" font-family="Arial" font-size="13px" font-style="normal" font-weight="bold" text-decoration="none" x="1200.407470703125" y="682">Appointment</text></g></g><g transform="translate(-406,-214) scale(1,1)"><g><path fill="none" stroke="none"/><text fill="#000000" stroke="none" font-family="Arial" font-size="13px" font-style="normal" font-weight="normal" text-decoration="none" x="1173" y="705">+id: string</text></g></g><g transform="translate(-406,-214) scale(1,1)"><g><path fill="none" stroke="none"/><text fill="#000000" stroke="none" font-family="Arial" font-size="13px" font-style="normal" font-weight="normal" text-decoration="none" x="1173" y="720">+dateTime: Time</text></g></g><g transform="translate(-406,-214) scale(1,1)"><g><path fill="none" stroke="none"/><text fill="#000000" stroke="none" font-family="Arial" font-size="13px" font-style="normal" font-weight="normal" text-decoration="none" x="1173" y="734.5">+status: enum</text></g></g><g transform="translate(-406,-214) scale(1,1)"><g><path fill="none" stroke="none"/><text fill="#000000" stroke="none" font-family="Arial" font-size="13px" font-style="normal" font-weight="normal" text-decoration="none" x="1173" y="750">+totalPrice: double</text></g></g><g transform="translate(-406,-214) scale(1,1)"><g><path fill="none" stroke="none"/><text fill="#000000" stroke="none" font-family="Arial" font-size="13px" font-style="normal" font-weight="normal" text-decoration="none" x="1173" y="765">+availability: Availability</text></g></g><g transform="translate(-406,-214) scale(1,1)"><rect fill="#C0C0C0" stroke="none" x="919" y="231" width="128" height="117" opacity="0.2"/></g><g transform="translate(-406,-214) scale(1,1)"><rect fill="#ffffff" stroke="none" x="912" y="224" width="128" height="117"/></g><g transform="translate(-406,-214) scale(1,1)"><path fill="none" stroke="#000000" d="M 912 224 L 1040 224 L 1040 341 L 912 341 L 912 224 Z Z" stroke-miterlimit="10"/></g><g transform="translate(-406,-214) scale(1,1)"><path fill="none" stroke="#000000" d="M 912 249 L 1040 249" stroke-miterlimit="10"/></g><g transform="translate(-406,-214) scale(1,1)"><path fill="none" stroke="#000000" d="M 912 332 L 1040 332" stroke-miterlimit="10"/></g><g transform="translate(-406,-214) scale(1,1)"><g><path fill="none" stroke="none"/><text fill="#000000" stroke="none" font-family="Arial" font-size="13px" font-style="normal" font-weight="bold" text-decoration="none" x="940.253173828125" y="242">Notification</text></g></g><g transform="translate(-406,-214) scale(1,1)"><g><path fill="none" stroke="none"/><text fill="#000000" stroke="none" font-family="Arial" font-size="13px" font-style="normal" font-weight="normal" text-decoration="none" x="917" y="265">+id: string</text></g></g><g transform="translate(-406,-214) scale(1,1)"><g><path fill="none" stroke="none"/><text fill="#000000" stroke="none" font-family="Arial" font-size="13px" font-style="normal" font-weight="normal" text-decoration="none" x="917" y="280">+message: string</text></g></g><g transform="translate(-406,-214) scale(1,1)"><g><path fill="none" stroke="none"/><text fill="#000000" stroke="none" font-family="Arial" font-size="13px" font-style="normal" font-weight="normal" text-decoration="none" x="917" y="294.5">+type: enum</text></g></g><g transform="translate(-406,-214) scale(1,1)"><g><path fill="none" stroke="none"/><text fill="#000000" stroke="none" font-family="Arial" font-size="13px" font-style="normal" font-weight="normal" text-decoration="none" x="917" y="310">+isRead: boolean</text></g></g><g transform="translate(-406,-214) scale(1,1)"><g><path fill="none" stroke="none"/><text fill="#000000" stroke="none" font-family="Arial" font-size="13px" font-style="normal" font-weight="normal" text-decoration="none" x="917" y="325">+user: User</text></g></g><g transform="translate(-406,-214) scale(1,1)"><rect fill="#C0C0C0" stroke="none" x="999" y="479" width="144" height="117" opacity="0.2"/></g><g transform="translate(-406,-214) scale(1,1)"><rect fill="#ffffff" stroke="none" x="992" y="472" width="144" height="117"/></g><g transform="translate(-406,-214) scale(1,1)"><path fill="none" stroke="#000000" d="M 992 472 L 1136 472 L 1136 589 L 992 589 L 992 472 Z Z" stroke-miterlimit="10"/></g><g transform="translate(-406,-214) scale(1,1)"><path fill="none" stroke="#000000" d="M 992 497 L 1136 497" stroke-miterlimit="10"/></g><g transform="translate(-406,-214) scale(1,1)"><path fill="none" stroke="#000000" d="M 992 580 L 1136 580" stroke-miterlimit="10"/></g><g transform="translate(-406,-214) scale(1,1)"><g><path fill="none" stroke="none"/><text fill="#000000" stroke="none" font-family="Arial" font-size="13px" font-style="normal" font-weight="bold" text-decoration="none" x="1027.5390625" y="490">ChatbotLog</text></g></g><g transform="translate(-406,-214) scale(1,1)"><g><path fill="none" stroke="none"/><text fill="#000000" stroke="none" font-family="Arial" font-size="13px" font-style="normal" font-weight="normal" text-decoration="none" x="997" y="513">+id: string</text></g></g><g transform="translate(-406,-214) scale(1,1)"><g><path fill="none" stroke="none"/><text fill="#000000" stroke="none" font-family="Arial" font-size="13px" font-style="normal" font-weight="normal" text-decoration="none" x="997" y="528">+userMessage: string</text></g></g><g transform="translate(-406,-214) scale(1,1)"><g><path fill="none" stroke="none"/><text fill="#000000" stroke="none" font-family="Arial" font-size="13px" font-style="normal" font-weight="normal" text-decoration="none" x="997" y="543">+detectedIntent: string</text></g></g><g transform="translate(-406,-214) scale(1,1)"><g><path fill="none" stroke="none"/><text fill="#000000" stroke="none" font-family="Arial" font-size="13px" font-style="normal" font-weight="normal" text-decoration="none" x="997" y="558">+response: string</text></g></g><g transform="translate(-406,-214) scale(1,1)"><g><path fill="none" stroke="none"/><text fill="#000000" stroke="none" font-family="Arial" font-size="13px" font-style="normal" font-weight="normal" text-decoration="none" x="997" y="573">+createdAt: DateTime</text></g></g><g transform="translate(-406,-214) scale(1,1)"><path fill="none" stroke="#000000" d="M 641 367 L 911 299" stroke-miterlimit="10"/></g><g transform="translate(-406,-214) scale(1,1)"><g><path fill="none" stroke="none"/><text fill="#000000" stroke="none" font-family="Arial" font-size="13px" font-style="normal" font-weight="normal" text-decoration="none" x="650.5" y="386">1</text></g></g><g transform="translate(-406,-214) scale(1,1)"><g><path fill="none" stroke="none"/><text fill="#000000" stroke="none" font-family="Arial" font-size="13px" font-style="normal" font-weight="normal" text-decoration="none" x="887.5" y="323">0..*</text></g></g><g transform="translate(-406,-214) scale(1,1)"><path fill="none" stroke="#000000" d="M 873 696 L 1167 717" stroke-miterlimit="10"/></g><g transform="translate(-406,-214) scale(1,1)"><g><path fill="none" stroke="none"/><text fill="#000000" stroke="none" font-family="Arial" font-size="13px" font-style="normal" font-weight="normal" text-decoration="none" x="879.5" y="689">1..*</text></g></g><g transform="translate(-406,-214) scale(1,1)"><g><path fill="none" stroke="none"/><text fill="#000000" stroke="none" font-family="Arial" font-size="13px" font-style="normal" font-weight="normal" text-decoration="none" x="1141.5" y="708">0..*</text></g></g><g transform="translate(-406,-214) scale(1,1)"><path fill="none" stroke="#000000" d="M 1260 871 L 1248 782" stroke-miterlimit="10"/></g><g transform="translate(-406,-214) scale(1,1)"><g><path fill="none" stroke="none"/><text fill="#000000" stroke="none" font-family="Arial" font-size="13px" font-style="normal" font-weight="normal" text-decoration="none" x="1267.641357421875" y="866">1</text></g></g><g transform="translate(-406,-214) scale(1,1)"><g><path fill="none" stroke="none"/><text fill="#000000" stroke="none" font-family="Arial" font-size="13px" font-style="normal" font-weight="normal" text-decoration="none" x="1255.5" y="800">1</text></g></g><g transform="translate(-406,-214) scale(1,1)"><path fill="none" stroke="#000000" d="M 752 623 L 629 460" stroke-miterlimit="10"/></g><g transform="translate(-406,-214) scale(1,1)"><g><path fill="none" stroke="none"/><text fill="#000000" stroke="none" font-family="Arial" font-size="13px" font-style="normal" font-weight="normal" text-decoration="none" x="751.5" y="611">0..*</text></g></g><g transform="translate(-406,-214) scale(1,1)"><g><path fill="none" stroke="none"/><text fill="#000000" stroke="none" font-family="Arial" font-size="13px" font-style="normal" font-weight="normal" text-decoration="none" x="646.5" y="475">1</text></g></g><g transform="translate(-406,-214) scale(1,1)"><path fill="none" stroke="#000000" d="M 641 405 L 991 508" stroke-miterlimit="10"/></g><g transform="translate(-406,-214) scale(1,1)"><g><path fill="none" stroke="none"/><text fill="#000000" stroke="none" font-family="Arial" font-size="13px" font-style="normal" font-weight="normal" text-decoration="none" x="646.5" y="428">1</text></g></g><g transform="translate(-406,-214) scale(1,1)"><g><path fill="none" stroke="none"/><text fill="#000000" stroke="none" font-family="Arial" font-size="13px" font-style="normal" font-weight="normal" text-decoration="none" x="967.5" y="523">1..*</text></g></g></g></svg>